<?xml version="1.0" standalone="no"?>
<!DOCTYPE svg PUBLIC "-//W3C//DTD SVG 20010904//EN"
 "http://www.w3.org/TR/2001/REC-SVG-20010904/DTD/svg10.dtd">
<svg version="1.0" xmlns="http://www.w3.org/2000/svg"
 width="528.000000pt" height="530.000000pt" viewBox="0 0 528.000000 530.000000"
 preserveAspectRatio="xMidYMid meet">
<metadata>
Created by potrace 1.16, written by Peter Selinger 2001-2019
</metadata>
<g transform="translate(0.000000,530.000000) scale(0.100000,-0.100000)"
fill="#000000" stroke="none">
<path d="M2740 4684 c-53 -23 -67 -88 -27 -128 20 -20 38 -24 113 -30 427 -33
808 -205 1079 -487 127 -132 202 -231 271 -355 201 -364 259 -793 163 -1202
-67 -281 -200 -524 -414 -755 -62 -67 -356 -364 -652 -660 l-538 -537 -636
637 c-386 388 -657 667 -690 713 -125 171 -218 367 -269 563 -43 167 -54 254
-54 437 0 135 4 184 22 270 67 306 191 566 377 790 241 289 557 414 856 339
273 -69 579 -336 672 -587 87 -234 60 -422 -134 -948 -183 -496 -239 -727
-255 -1057 l-7 -139 -319 319 c-176 175 -346 353 -379 396 -70 93 -128 208
-165 332 -26 84 -28 102 -28 275 0 221 13 281 100 460 48 96 68 127 129 187
84 84 155 123 228 123 114 0 187 -94 172 -222 -4 -29 -35 -170 -70 -313 -36
-143 -71 -305 -80 -360 -20 -123 -21 -309 -1 -401 33 -163 49 -191 106 -200
29 -5 40 -1 63 21 33 33 33 48 5 162 -26 110 -28 277 -4 413 9 52 44 201 78
330 95 367 93 493 -12 619 -135 162 -338 160 -549 -4 -204 -160 -341 -486
-341 -810 0 -257 88 -522 239 -722 33 -43 250 -268 483 -500 415 -415 424
-423 463 -423 39 0 48 8 466 427 234 236 451 462 482 503 68 91 146 246 182
360 15 47 34 143 43 214 13 108 14 146 4 245 -21 209 -87 395 -198 563 -57 86
-209 241 -294 300 -87 62 -227 130 -327 162 -78 24 -87 30 -165 109 -151 151
-356 278 -533 329 -68 19 -103 23 -230 22 -134 0 -160 -3 -238 -27 -360 -111
-683 -440 -871 -889 -96 -230 -140 -439 -140 -673 1 -417 114 -758 367 -1105
52 -71 241 -266 741 -768 665 -666 671 -672 711 -672 40 0 46 6 706 667 688
691 750 759 858 947 169 292 251 594 251 926 0 307 -56 544 -195 826 -228 461
-650 803 -1157 938 -175 46 -406 71 -458 50z m558 -960 c81 -52 218 -190 278
-280 68 -102 108 -189 142 -312 24 -88 27 -113 27 -262 -1 -180 -12 -239 -76
-400 -60 -149 -118 -219 -503 -607 -198 -200 -363 -363 -368 -363 -11 0 -10
173 2 304 23 237 81 462 206 796 96 257 168 477 196 594 18 74 22 122 22 256
0 167 -7 209 -59 333 -7 17 -4 17 36 -3 24 -13 68 -38 97 -56z"/>
</g>
</svg>
